<svg xmlns="http://www.w3.org/2000/svg" xmlns:xlink="http://www.w3.org/1999/xlink" width="12" height="12" viewBox="0 0 12 12">
  <defs>
    <clipPath id="clip-path">
      <rect width="12" height="12" fill="none"/>
    </clipPath>
  </defs>
  <g id="Symbol_183_15" data-name="Symbol 183 – 15" clip-path="url(#clip-path)">
    <rect id="Rectangle_554" data-name="Rectangle 554" width="12" height="12" fill="none"/>
    <path id="Path_148" data-name="Path 148" d="M.2,7.6C.1,7.4,0,7.3,0,7.1a.764.764,0,0,1,.2-.5L6.7.1A.1.1,0,0,1,6.8,0h4.4a.764.764,0,0,1,.5.2.713.713,0,0,1,.3.6V5.2c0,.1,0,.1-.1.2L5.4,11.9a4.331,4.331,0,0,1-.5.1.764.764,0,0,1-.5-.2ZM8.6,1.8a1.234,1.234,0,0,0-.4.8,1.136,1.136,0,0,0,.3.8,1.217,1.217,0,0,0,1.6,0,1.136,1.136,0,0,0,.3-.8,1.077,1.077,0,0,0-.2-.8,1.217,1.217,0,0,0-1.6,0Z" fill="#131626"/>
  </g>
</svg>
